<svg width="33" height="33" viewBox="0 0 33 33" fill="none" xmlns="http://www.w3.org/2000/svg">
<path d="M16.5015 0C12.0204 0 11.458 0.0195943 9.69798 0.0996889C7.9414 0.180127 6.74238 0.458224 5.69325 0.866259C4.60802 1.2877 3.68744 1.85146 2.77031 2.76894C1.85249 3.68607 1.28873 4.60664 0.865915 5.69153C0.456848 6.74101 0.178408 7.94036 0.0993446 9.69626C0.0206251 11.4563 0 12.019 0 16.5002C0 20.9813 0.019938 21.542 0.0996889 23.302C0.180471 25.0586 0.458567 26.2576 0.866259 27.3068C1.28804 28.392 1.8518 29.3126 2.76928 30.2297C3.68607 31.1475 4.60664 31.7126 5.69118 32.1341C6.74101 32.5421 7.94036 32.8202 9.6966 32.9007C11.4566 32.9807 12.0187 33.0003 16.4995 33.0003C20.981 33.0003 21.5417 32.9807 23.3017 32.9007C25.0583 32.8202 26.2586 32.5421 27.3085 32.1341C28.3934 31.7126 29.3126 31.1475 30.2293 30.2297C31.1472 29.3126 31.7109 28.392 32.1337 27.3071C32.5394 26.2576 32.8178 25.0583 32.9003 23.3024C32.9794 21.5423 33 20.9813 33 16.5002C33 12.019 32.9794 11.4566 32.9003 9.6966C32.8178 7.94002 32.5394 6.74101 32.1337 5.69187C31.7109 4.60664 31.1472 3.68607 30.2293 2.76894C29.3115 1.85111 28.3937 1.28736 27.3074 0.866259C26.2556 0.458224 25.0559 0.180127 23.2993 0.0996889C21.5393 0.0195943 20.9789 0 16.4964 0H16.5015ZM15.0213 2.97347C15.4607 2.97278 15.9509 2.97347 16.5015 2.97347C20.9071 2.97347 21.4293 2.98928 23.169 3.06834C24.7778 3.14191 25.6509 3.41072 26.2325 3.63657C27.0025 3.93563 27.5515 4.29314 28.1287 4.87064C28.7062 5.44815 29.0637 5.99816 29.3634 6.76816C29.5893 7.34911 29.8584 8.22224 29.9317 9.83101C30.0107 11.5704 30.0279 12.0929 30.0279 16.4964C30.0279 20.8999 30.0107 21.4224 29.9317 23.1618C29.8581 24.7705 29.5893 25.6437 29.3634 26.2246C29.0644 26.9946 28.7062 27.5429 28.1287 28.1201C27.5512 28.6976 27.0029 29.0551 26.2325 29.3541C25.6516 29.581 24.7778 29.8492 23.169 29.9227C21.4296 30.0018 20.9071 30.019 16.5015 30.019C12.0957 30.019 11.5735 30.0018 9.8341 29.9227C8.22534 29.8485 7.3522 29.5797 6.77023 29.3538C6.00022 29.0547 5.45021 28.6972 4.87271 28.1197C4.2952 27.5422 3.9377 26.9936 3.63794 26.2232C3.4121 25.6423 3.14294 24.7692 3.06972 23.1604C2.99066 21.421 2.97484 20.8985 2.97484 16.4923C2.97484 12.086 2.99066 11.5663 3.06972 9.82688C3.14328 8.21812 3.4121 7.34498 3.63794 6.76335C3.93701 5.99334 4.2952 5.44334 4.87271 4.86583C5.45021 4.28833 6.00022 3.93082 6.77023 3.63107C7.35186 3.40419 8.22534 3.13606 9.8341 3.06216C11.3562 2.99341 11.9461 2.97278 15.0213 2.96934V2.97347ZM25.3092 5.71318C24.2161 5.71318 23.3292 6.59904 23.3292 7.69252C23.3292 8.78565 24.2161 9.67254 25.3092 9.67254C26.4023 9.67254 27.2892 8.78565 27.2892 7.69252C27.2892 6.59938 26.4023 5.7125 25.3092 5.7125V5.71318ZM16.5015 8.02665C11.822 8.02665 8.02802 11.8207 8.02802 16.5002C8.02802 21.1797 11.822 24.972 16.5015 24.972C21.1811 24.972 24.9737 21.1797 24.9737 16.5002C24.9737 11.8207 21.1807 8.02665 16.5012 8.02665H16.5015ZM16.5015 11.0001C19.539 11.0001 22.0016 13.4624 22.0016 16.5002C22.0016 19.5376 19.539 22.0002 16.5015 22.0002C13.4638 22.0002 11.0015 19.5376 11.0015 16.5002C11.0015 13.4624 13.4638 11.0001 16.5015 11.0001V11.0001Z" fill="black"/>
</svg>
